<svg fill="#000000" xmlns="http://www.w3.org/2000/svg"  viewBox="0 0 16 16" width="50px" height="50px"><path fill="none" stroke="#000000" stroke-miterlimit="320" d="M13.5,8c0-0.6-0.1-1.1-0.2-1.6l0.9-0.8l-1-1.8L12,4.3c-0.7-0.8-1.7-1.4-2.8-1.6L9,1.5H7L6.8,2.6	C5.7,2.9,4.7,3.5,4,4.3L2.9,3.9l-1,1.8l0.9,0.8C2.6,6.9,2.5,7.4,2.5,8s0.1,1.1,0.2,1.6l-0.9,0.8l1,1.8L4,11.7	c0.7,0.8,1.7,1.4,2.8,1.6L7,14.5h2l0.2-1.1c1.1-0.2,2.1-0.8,2.8-1.6l1.1,0.4l1-1.8l-0.9-0.8C13.4,9.1,13.5,8.6,13.5,8z M8,10.5	c-1.4,0-2.5-1.1-2.5-2.5S6.6,5.5,8,5.5s2.5,1.1,2.5,2.5S9.4,10.5,8,10.5z"/></svg>